<svg width="91" height="91" viewBox="0 0 91 91" fill="none" xmlns="http://www.w3.org/2000/svg">
<path d="M45.5 91C54.4002 91 63.1004 88.3315 70.5007 83.3319C77.9009 78.3323 83.6686 71.2262 87.0746 62.9121C90.4805 54.5981 91.3717 45.4495 89.6353 36.6234C87.899 27.7973 83.6132 19.69 77.3198 13.3267C71.0264 6.96337 63.0082 2.62992 54.2791 0.87429C45.5499 -0.881337 36.5019 0.0197147 28.2792 3.4635C20.0566 6.90729 13.0285 12.7391 8.08387 20.2216C3.1392 27.704 0.5 36.501 0.5 45.5C0.5 57.5674 5.24106 69.1405 13.6802 77.6734C22.1193 86.2063 33.5653 91 45.5 91" fill="#EDF7F5"/>
<path d="M31.1812 34.0293H24.6289V60.2815H31.1812V34.0293Z" fill="#004C6A"/>
<path d="M41.0673 30.7168H24.6289V37.6775H41.0673V30.7168Z" fill="#004C6A"/>
<path d="M52.9167 59.998H46.3789L54.3888 30.9997H61.6772L52.9167 59.998Z" fill="#00AAA6"/>
<path d="M61.7058 30.9997H55.168L63.1923 59.998H70.4662L61.7058 30.9997Z" fill="#00AAA6"/>
</svg>
