<svg width="54" height="25" viewBox="0 0 54 25" fill="none" xmlns="http://www.w3.org/2000/svg">
<path d="M53.1282 3.06556C53.0914 3.04682 53.0511 3.03596 53.0098 3.03368C52.9686 3.0314 52.9274 3.03774 52.8887 3.0523C52.8501 3.06686 52.8149 3.08933 52.7855 3.11825C52.756 3.14718 52.7329 3.18193 52.7176 3.2203C52.7176 3.2203 51.8271 4.29714 51.1229 4.16766C50.4187 4.03819 48.1955 4.13609 47.3997 4.26872C46.6039 4.40135 45.6787 3.91188 46.0639 3.52345C46.0639 3.52345 46.0639 3.38451 46.7776 3.11293C47.2098 2.9545 47.6163 2.73317 47.9839 2.45609C48.5839 2.16325 49.1433 1.79386 49.6482 1.35714C50.2103 0.795037 49.8124 0.665563 49.8124 0.665563C49.8124 0.665563 49.5313 0.630826 46.1239 1.33504C45.3686 1.46316 44.6878 1.86716 44.2134 2.46872C44.0555 2.66135 43.9197 2.81609 43.7997 2.9424C43.6776 3.08121 43.5445 3.21004 43.4018 3.32766C42.9524 3.48231 42.4876 3.58818 42.0155 3.64345C39.909 3.78385 37.8121 4.04215 35.7345 4.41714C32.5103 4.97609 29.3587 5.8824 26.4976 7.4203C23.9429 8.79398 21.4197 8.90767 18.7387 8.26661C16.6513 7.76766 14.586 7.1803 12.4924 6.71293C10.2819 6.2203 7.3324 5.44977 5.05872 5.44977C2.78504 5.44977 0.432408 7.14556 0.811355 10.3066C0.988197 11.8193 1.10188 11.7719 1.75872 13.6382C3.52083 17.6803 6.01241 21.154 8.74083 24.3119C9.01241 24.6277 9.42293 24.653 10.2029 24.3656C10.3008 24.2551 9.57135 23.5509 9.37556 23.3645C9.16307 23.1507 8.96275 22.9251 8.77556 22.6887C8.39346 22.1709 8.03346 21.653 7.65451 21.154C7.51556 20.9677 6.84925 20.0361 6.70714 19.8182C6.3124 19.1645 5.36504 17.453 5.21977 17.1593C4.41767 15.5803 2.29872 11.7624 2.63346 9.49819C2.9903 7.75819 4.60398 6.85819 6.42293 7.17398C10.1177 7.80556 13.7492 8.73082 17.3934 9.60556C19.0008 9.99398 20.6239 10.1645 22.2534 10.4235C23.7755 10.6635 25.2503 10.2814 26.6176 9.64977C29.0514 8.51034 31.5694 7.56016 34.1492 6.80767C36.0998 6.2677 38.092 5.89062 40.105 5.6803C40.4018 5.64556 41.5576 5.56661 41.8829 5.47819C42.8113 5.22556 43.386 5.56345 43.7776 6.40661C43.9036 6.72914 44.0987 7.02017 44.3492 7.25924C44.8576 7.70451 44.7787 7.97924 44.3018 8.43082C41.7187 10.894 40.6103 14.1151 39.8492 17.4687C39.5966 18.5898 39.7229 19.7488 39.6566 20.9424C38.4597 20.4593 37.3924 19.9193 36.3124 19.4077C33.9534 18.2898 31.8755 16.5814 29.0903 16.3572C26.305 16.133 23.5608 15.454 20.8197 14.873C19.686 14.6235 16.8755 13.8909 16.6039 13.8309C13.8951 13.0595 11.2319 12.1359 8.62714 11.0645C8.22705 10.8875 7.78239 10.8371 7.35282 10.9201C6.92326 11.003 6.52935 11.2154 6.22398 11.5287C5.69346 12.0751 5.45346 12.8393 5.67135 13.9319C5.84188 14.7972 5.89556 15.6024 7.83451 19.3572C8.28387 20.239 8.81236 21.0782 9.41346 21.8645C9.78293 22.3445 11.0303 24.0751 11.3082 24.233C12.1955 24.5487 12.2555 24.2709 12.2555 24.233C12.2113 24.0403 12.0471 23.9172 11.9176 23.7877C9.41815 21.0212 7.64314 17.6784 6.75135 14.0582C6.59662 13.4266 6.54609 12.7951 7.04819 12.2961C7.44925 11.9014 7.95451 11.9014 8.45662 12.0056C8.60738 12.0604 8.75407 12.1258 8.89556 12.2014C15.4734 14.9709 21.1576 16.3066 27.5082 17.6172C28.7997 17.8824 30.1671 17.8635 31.3166 18.7066C32.466 19.5498 33.8429 20.1845 35.106 20.9456C36.5587 21.833 38.245 22.3035 39.5271 23.4498C40.0304 23.9121 40.6649 24.2067 41.3429 24.293C43.645 24.6088 45.9124 23.9993 48.2082 24.0151C48.5239 24.0151 49.086 23.9487 49.0324 23.3835C48.9787 22.8182 48.4576 22.9003 48.1103 22.8435C47.3587 22.7172 46.5913 22.6824 45.8334 22.5909C44.406 22.4235 43.0829 21.7098 41.6208 21.7382C41.166 21.7382 41.1092 21.5677 41.1124 21.1856C41.1031 19.6342 41.3288 18.0904 41.7818 16.6066C42.3696 14.5792 43.4817 12.7427 45.006 11.2824C45.1892 11.1119 45.4703 10.714 45.7545 10.673C45.8552 10.7258 45.9487 10.7916 46.0324 10.8687C46.225 11.0614 46.926 11.1845 47.1471 11.1561C47.3665 11.1454 47.5815 11.0904 47.7791 10.9943C47.9766 10.8982 48.1527 10.7631 48.2966 10.5971C48.3819 10.506 48.443 10.395 48.4744 10.2742C48.5059 10.1534 48.5066 10.0267 48.4766 9.90556C48.3646 9.45683 48.3262 8.99291 48.3629 8.53188C48.5509 7.77882 48.5258 6.9883 48.2903 6.24872C48.6566 6.14451 49.1682 6.02451 49.8692 5.89819C51.6503 5.5824 52.5155 5.37082 53.1376 4.1203C53.1376 4.1203 53.5703 3.25188 53.1376 3.07503L53.1282 3.06556Z" fill="white"/>
</svg>
