<svg width="93" height="92" viewBox="0 0 93 92" fill="none" xmlns="http://www.w3.org/2000/svg">
<g clip-path="url(#clip0_16274_202386)">
<path d="M46.5 92C55.5979 92 64.4916 89.3022 72.0562 84.2476C79.6209 79.1931 85.5168 72.0089 88.9985 63.6035C92.4801 55.1981 93.391 45.949 91.6161 37.0259C89.8412 28.1027 85.4601 19.9063 79.0269 13.4731C72.5937 7.03989 64.3973 2.65882 55.4742 0.883898C46.551 -0.891022 37.302 0.0199313 28.8966 3.50156C20.4912 6.98319 13.3069 12.8791 8.2524 20.4438C3.19785 28.0085 0.5 36.9021 0.5 46C0.5 58.2 5.34641 69.9003 13.9731 78.5269C22.5998 87.1536 34.3 92 46.5 92Z" fill="#EDF7F5"/>
<path fill-rule="evenodd" clip-rule="evenodd" d="M67.4955 40.1645C69.6222 39.9048 71.7661 40.8528 73.0095 42.71V42.7143C73.6827 43.7143 74 44.9134 74 46.1212V52.026H57.5093C55.374 52.026 53.6417 50.2771 53.6417 48.1169V35.7836L57.5093 35V48.1126H70.1282V45.9827C70.1282 45.4156 69.8966 44.8961 69.4764 44.5195C69.0605 44.1429 68.5202 43.974 67.9628 44.0433L62.3802 44.7273L61.4669 40.9004L62.2215 40.8095L67.4955 40.1645ZM41.3446 39.896H45.585L45.5936 39.8917C48.9724 39.8917 51.708 42.6537 51.708 46.0649C51.708 49.4762 48.9724 52.2381 45.5936 52.2381C43.7542 52.2381 42.1036 51.4156 40.9845 50.1169V52.0216H34.8015C35.0845 53.013 34.9687 54.0823 34.4413 55.0173C33.7467 56.2597 32.4861 57 31.0754 57H25.7286C24.1464 57 22.62 56.329 21.5438 55.1645C20.4633 54 19.9058 52.4199 20.013 50.8268L20.4804 43.7965L24.3051 44.619L23.872 51.0952C23.8334 51.619 24.0135 52.1169 24.3651 52.4978C24.721 52.8831 25.1969 53.0952 25.72 53.0952H31.0669L28.7043 48.1169H39.8182C39.5952 47.4762 39.4709 46.8052 39.4709 46.0693C39.4709 45.3333 39.5995 44.632 39.831 43.9784L41.3446 39.896ZM43.3425 46.0693C43.3425 47.3203 44.3459 48.3333 45.585 48.3333C46.8242 48.3333 47.8275 47.3203 47.8275 46.0693C47.8275 44.8182 46.8242 43.8052 45.585 43.8052C44.3459 43.8052 43.3425 44.8182 43.3425 46.0693Z" fill="#5BC4BF"/>
</g>
<defs>
<clipPath id="clip0_16274_202386">
<rect width="92" height="92" fill="white" transform="translate(0.5)"/>
</clipPath>
</defs>
</svg>
