<svg width="97" height="16" viewBox="0 0 97 16" fill="none" xmlns="http://www.w3.org/2000/svg">
<path d="M31.7765 4.83052C30.4123 4.83052 28.7954 4.83052 28.3565 4.7642C28.289 5.25194 28.1485 5.72674 27.9397 6.17265C28.2554 6.15365 28.6281 6.15055 29.6291 6.15055C28.9373 7.33445 28.1639 8.46885 27.3144 9.54525C26.7365 10.3094 25.3281 10.2842 24.4723 10.2842H24.1186C24.6428 9.72525 24.8891 9.30205 24.8891 7.67575C24.8891 5.84736 24.0806 4.83367 22.3027 4.83367H20.7775C18.8575 6.80105 18.4186 7.58425 18.4186 8.83155C18.4058 9.35175 18.5608 9.86215 18.8607 10.2873H17.9797C16.1102 10.2873 15.646 9.94315 15.646 8.48735C15.646 6.38425 15.646 5.61999 15.6681 5.20631C15.187 5.39199 14.6819 5.5079 14.1681 5.55052C14.2123 6.14105 14.2565 7.76105 14.2597 9.36845C13.5049 9.94315 12.1849 10.2273 10.1291 10.2778H9.71225C7.51745 10.2778 7.10065 9.69995 7.07855 8.36105C7.07935 7.04665 6.98645 5.73383 6.80065 4.43262C6.33285 4.73023 5.81665 4.94395 5.27535 5.0642C5.56965 6.43615 5.75865 7.82865 5.84065 9.22945C5.07325 9.91785 3.87015 10.262 2.71115 10.262C2.07965 10.262 1.74175 10.0789 1.74175 9.73155V8.66735C1.42685 8.84445 1.08225 8.96215 0.724854 9.01475C0.750154 9.31475 0.750153 9.96205 0.750153 10.4926C0.772253 11.4873 1.16385 12.1347 2.41115 12.1347C3.65855 12.1347 5.13965 11.6705 5.50905 11.0484C5.66695 10.7673 5.86595 10.4357 6.00485 10.1831C6.16595 11.4684 6.92695 12.1347 9.52905 12.1347L9.84486 12.1157C11.8439 12.0526 13.2807 11.762 13.7639 11.1684C13.9533 10.9189 14.1965 10.5747 14.446 10.2557C14.5976 11.462 15.4249 12.1505 17.7618 12.1505H24.0018C26.0797 12.1505 27.027 11.7557 27.5133 11.0642C27.7691 10.7168 28.0218 10.3252 28.3691 9.80105C28.3691 11.2315 29.4776 12.1347 31.2112 12.1347C31.8807 12.1347 32.4586 12.0873 33.1754 12.0652C33.8449 10.8178 34.7228 10.401 34.7228 7.78945C34.7228 6.01155 33.567 4.83052 31.767 4.83052H31.7765ZM23.0418 10.3536C20.6828 10.3315 19.8523 9.59265 19.8523 8.14315C19.8632 7.45555 20.0982 6.79025 20.5218 6.24845H21.7849C23.0481 6.24845 23.4239 6.96525 23.4239 8.16525C23.4239 9.45995 23.3322 9.89895 23.0322 10.3599L23.0418 10.3536ZM33.1944 10.1926C32.6431 10.2682 32.0865 10.2988 31.5302 10.2842C30.166 10.2842 29.566 9.75365 29.566 8.94525C29.566 8.40845 29.6986 7.93475 30.6333 6.24205H31.2997C32.6165 6.24205 33.2859 7.32845 33.2859 8.55365C33.3119 9.10165 33.2813 9.65095 33.1944 10.1926Z" fill="white"/>
<path d="M60.5895 3.37851C60.5415 2.88596 60.5415 2.39 60.5895 1.89746H58.9025C58.9245 2.36167 58.9245 3.05325 58.9025 3.37851H60.5895Z" fill="white"/>
<path d="M67.0125 0.649414C65.8205 1.60788 64.5785 2.50281 63.2925 3.33046V4.38204C64.9345 3.31783 65.7645 2.73994 67.2205 1.65678C67.1185 1.33292 67.0485 0.999714 67.0125 0.662044" fill="white"/>
<path d="M23.1554 3.37851C23.1112 2.88582 23.1112 2.39015 23.1554 1.89746H21.447C21.4914 2.39014 21.4914 2.88583 21.447 3.37851H23.1554Z" fill="white"/>
<path d="M77.1234 5.43468C77.3544 6.77364 77.5844 9.42944 77.6544 10.8883C77.2844 11.8357 75.7844 12.6662 74.7644 13.1273C75.2374 13.5231 75.6614 13.9736 76.0274 14.4694C76.4954 14.1949 76.9364 13.8777 77.3444 13.522C78.4054 12.5273 78.8704 11.141 78.8704 9.33784C78.8704 7.92944 78.7754 5.99044 78.7534 4.97363C78.2404 5.20791 77.6954 5.36335 77.1364 5.43468" fill="white"/>
<path d="M92.6635 5.54725H86.5625C88.5495 4.59988 89.9825 3.74409 91.5555 2.82198C91.3245 2.35824 91.1755 1.85837 91.1135 1.34409C90.2135 2.05777 87.3235 3.97777 84.7595 5.54725C84.7625 6.05154 84.7175 6.55494 84.6235 7.05044H92.2025C93.6365 7.05044 94.7445 7.95044 94.7445 9.38404C94.7445 9.66194 94.7225 9.98404 94.6975 10.2398C94.3145 10.2797 93.9295 10.2955 93.5445 10.2872H83.4555C82.8235 10.2872 82.5075 10.0314 82.5075 9.43144V0.879883C81.9985 1.17663 81.4305 1.35876 80.8435 1.41356C81.0045 2.61356 81.1435 5.33882 81.2355 10.2398C81.2575 11.4651 81.8355 12.1346 82.9465 12.1346C91.6565 12.1346 90.8825 12.0872 93.4505 12.0872C93.8045 12.0793 94.1585 12.0952 94.5115 12.1346C95.1805 10.9567 96.0365 10.2619 96.0365 8.59774C96.0365 6.86724 94.5805 5.54725 92.6635 5.54725Z" fill="white"/>
<path d="M71.2095 5.54789H65.0895C67.1705 4.50894 68.5095 3.74473 70.0785 2.82263C69.8505 2.35817 69.7015 1.85853 69.6395 1.34473C68.7395 2.05842 65.8505 3.97842 63.2855 5.54789C63.2895 6.05235 63.2435 6.55585 63.1475 7.05105H70.7255C72.1565 7.05105 73.2685 7.95105 73.2685 9.38475C73.2685 9.66265 73.2425 9.98475 73.2205 10.2405C72.8365 10.2804 72.4505 10.2962 72.0645 10.2878H63.7595C61.6785 10.2878 60.8225 9.89315 60.7315 8.32055C60.6615 7.30365 60.6145 6.10995 60.5925 4.96999C60.0805 5.20661 59.5345 5.36317 58.9755 5.43421C59.2055 6.77315 59.4365 9.43205 59.5055 10.8878C59.1365 11.8352 57.6365 12.6657 56.6195 13.1268C57.0865 13.5234 57.5055 13.9739 57.8675 14.4689C58.3345 14.1944 58.7755 13.8773 59.1835 13.5215C59.8755 12.862 60.3465 12.0051 60.5325 11.0678C60.9395 11.8005 61.8395 12.1352 63.3745 12.1352C70.2145 12.1352 69.4405 12.0878 72.0045 12.0878C72.3605 12.08 72.7155 12.0958 73.0695 12.1352C73.7385 10.9573 74.5945 10.2626 74.5945 8.59845C74.5945 6.86785 73.1385 5.54789 71.2215 5.54789" fill="white"/>
<path d="M45.9614 6.14805H47.2784C47.3614 5.61216 47.5424 5.09612 47.8124 4.62598H46.3564C45.7244 4.62598 44.7144 4.64809 43.8584 4.71756C43.0753 5.75651 41.6637 7.00385 41.6637 8.76285C41.6637 10.1712 42.5668 10.9322 44.2974 10.9322H46.3314C46.1704 12.2491 44.9004 12.688 43.0753 12.688H41.7805C39.8858 12.688 39.1468 11.788 39.1468 10.4491C39.1658 9.72725 39.2429 9.00805 39.3774 8.29865C39.0184 8.46265 38.6358 8.56925 38.2437 8.61445C38.2216 9.37865 38.0353 10.3007 38.0353 11.3175C38.0353 13.2817 39.0995 14.4754 41.3637 14.4754H42.8416C46.1704 14.4754 47.5344 12.467 47.5344 10.4807C47.5344 9.64705 47.2564 9.25545 46.4254 9.25545H44.9004C43.6532 9.25545 43.0279 8.95545 43.0279 8.03015C43.0695 7.38745 43.2714 6.76535 43.6153 6.22075C44.3984 6.14715 45.1854 6.12285 45.9714 6.14805" fill="white"/>
<path d="M55.0435 12.1346C55.4395 11.9358 55.8585 11.7883 56.2915 11.6956C56.3135 2.79988 56.3385 1.27461 56.3605 0.879883C55.8225 1.16854 55.2335 1.3498 54.6265 1.41356C54.7875 2.61356 54.9965 5.94194 55.0435 12.1346Z" fill="white"/>
<path d="M50.6764 5.43468C50.9074 6.77364 51.1374 9.42944 51.2074 10.8883C50.8374 11.8357 49.3374 12.6662 48.3204 13.1273C48.7934 13.523 49.2174 13.9735 49.5834 14.4694C50.0514 14.1949 50.4914 13.8777 50.9004 13.522C51.9614 12.5273 52.4254 11.141 52.4254 9.33784C52.4254 7.92944 52.3314 5.99044 52.3094 4.97363C51.7964 5.20791 51.2514 5.36335 50.6924 5.43468" fill="white"/>
<path d="M8.26276 13.54C8.30716 14.0316 8.30716 14.5263 8.26276 15.0179H9.97115C9.92375 14.5264 9.92375 14.0315 9.97115 13.54H8.26276Z" fill="white"/>
<path d="M10.41 13.54C10.4545 14.0316 10.4545 14.5263 10.41 15.0179H12.1184C12.0711 14.5264 12.0711 14.0315 12.1184 13.54H10.41Z" fill="white"/>
</svg>
