<svg width="93" height="92" viewBox="0 0 93 92" fill="none" xmlns="http://www.w3.org/2000/svg">
<g clip-path="url(#clip0_16302_21914)">
<path d="M46.5 92C55.5979 92 64.4916 89.3022 72.0562 84.2476C79.6209 79.1931 85.5168 72.0089 88.9985 63.6035C92.4801 55.1981 93.391 45.949 91.6161 37.0259C89.8412 28.1027 85.4601 19.9063 79.0269 13.4731C72.5937 7.03989 64.3973 2.65882 55.4742 0.883898C46.551 -0.891022 37.302 0.0199313 28.8966 3.50156C20.4912 6.98319 13.3069 12.8791 8.2524 20.4438C3.19785 28.0085 0.5 36.9021 0.5 46C0.5 58.2 5.34641 69.9003 13.9731 78.5269C22.5998 87.1536 34.3 92 46.5 92Z" fill="#EDF7F5"/>
<path d="M65 32H29C27.8954 32 27 32.8954 27 34V59C27 60.1046 27.8954 61 29 61H65C66.1046 61 67 60.1046 67 59V34C67 32.8954 66.1046 32 65 32Z" fill="#5BC4BF"/>
<path d="M65 32H29C27.8954 32 27 32.8954 27 34V36C27 37.1046 27.8954 38 29 38H65C66.1046 38 67 37.1046 67 36V34C67 32.8954 66.1046 32 65 32Z" fill="#004C6A"/>
<path d="M67 35H27V38H67V35Z" fill="#004C6A"/>
<path opacity="0.4" d="M59.9093 44.2095C59.8912 44.2 59.8713 44.1944 59.851 44.1932C59.8306 44.1919 59.8103 44.1951 59.7912 44.2023C59.7721 44.2096 59.7547 44.2208 59.7401 44.2354C59.7255 44.2499 59.714 44.2673 59.7064 44.2867C59.7064 44.2867 59.2655 44.8314 58.9171 44.7669C58.5688 44.7024 57.4672 44.7508 57.0738 44.8176C56.6803 44.8844 56.2214 44.6368 56.4131 44.441C56.4131 44.441 56.4074 44.3696 56.766 44.2337C56.9799 44.1535 57.1813 44.0417 57.3635 43.902C57.3635 43.902 57.907 43.6301 58.1854 43.3457C58.4639 43.0612 58.2677 43.0001 58.2677 43.0001C58.2677 43.0001 58.1279 42.9829 56.4413 43.3376C56.0675 43.4038 55.731 43.6089 55.4965 43.9135C55.4198 44.0102 55.3522 44.0885 55.2924 44.1519H55.2845C55.222 44.2199 55.155 44.2834 55.0838 44.3419C54.8611 44.4186 54.6309 44.4703 54.3972 44.4963C53.3577 44.5703 52.3229 44.7033 51.2979 44.8948C49.7082 45.1781 48.1478 45.6354 46.7317 46.4093C45.4667 47.1004 44.2175 47.1614 42.8916 46.8378C41.8589 46.5844 40.8374 46.2884 39.8013 46.0523C38.711 45.8035 37.2476 45.4096 36.1224 45.4108C34.9972 45.4119 33.8337 46.2665 34.0197 47.8663C34.1077 48.6299 34.164 48.6046 34.4966 49.549C35.3602 51.5934 36.5925 53.3498 37.9432 54.937C38.0589 55.0788 39.2276 54.937 39.2276 54.937C39.2276 54.937 39.693 54.9208 39.6874 54.8944C39.6648 54.7965 39.5837 54.7423 39.5194 54.664C38.2846 53.2677 37.4073 51.5809 36.9657 49.7541C36.8879 49.4281 36.8631 49.1137 37.1123 48.8626C37.3107 48.6622 37.5633 48.6633 37.8091 48.7163C37.884 48.7432 37.9567 48.7759 38.0267 48.8142C41.276 50.2274 44.089 50.9012 47.2278 51.5646C47.8659 51.6994 48.5435 51.6902 49.1129 52.1163C49.6822 52.5425 50.3655 52.8626 50.9833 53.2485C51.7015 53.6954 52.5358 53.9395 53.1751 54.5154C53.4258 54.7486 53.7407 54.8974 54.077 54.9416C55.2169 55.0959 56.3387 54.7941 57.474 54.8011C57.6296 54.8011 57.9092 54.7677 57.8833 54.4774C57.8573 54.1872 57.5992 54.2332 57.4267 54.2033C57.0535 54.1399 56.6747 54.1215 56.2992 54.0766C55.5923 53.9914 54.9384 53.6309 54.2146 53.6458C53.9891 53.6458 53.9609 53.5595 53.9631 53.366C53.9588 52.5816 54.0705 51.8011 54.2946 51.0509C54.6137 50.0259 55.1064 49.101 55.8899 48.3593C55.9813 48.2729 56.1211 48.0713 56.2598 48.0518C56.3101 48.0778 56.3564 48.1111 56.3973 48.1508C56.4943 48.2487 56.8404 48.3017 56.9498 48.2959C57.0576 48.29 57.1631 48.2618 57.26 48.2131C57.3568 48.1644 57.4431 48.0962 57.5135 48.0126C57.5553 47.9671 57.5854 47.9117 57.6011 47.8514C57.6169 47.7911 57.6177 47.7278 57.6037 47.6671C57.5482 47.4414 57.5292 47.208 57.5473 46.976C57.6916 46.27 57.5112 45.8242 57.5112 45.8242C57.6927 45.7713 57.9453 45.7091 58.288 45.6469C59.1686 45.4879 59.5981 45.3808 59.9048 44.7474C59.9048 44.7474 60.119 44.3085 59.9048 44.2198L59.9093 44.2095Z" fill="#004C6A"/>
</g>
<defs>
<clipPath id="clip0_16302_21914">
<rect width="92" height="92" fill="white" transform="translate(0.5)"/>
</clipPath>
</defs>
</svg>
