<svg width="153" height="25" viewBox="0 0 153 25" fill="none" xmlns="http://www.w3.org/2000/svg">
<path d="M53.109 3.10731C53.0722 3.08857 53.0319 3.07771 52.9906 3.07543C52.9494 3.07315 52.9082 3.07949 52.8695 3.09405C52.8309 3.10861 52.7957 3.13108 52.7663 3.16C52.7368 3.18893 52.7137 3.22368 52.6984 3.26205C52.6984 3.26205 51.8079 4.33889 51.1037 4.20941C50.3995 4.07994 48.1763 4.17784 47.3805 4.31047C46.5847 4.4431 45.6595 3.95363 46.0447 3.5652C46.0447 3.5652 46.0447 3.42626 46.7584 3.15468C47.1906 2.99625 47.5971 2.77492 47.9647 2.49784C48.5647 2.205 49.1241 1.83561 49.629 1.39889C50.1911 0.836785 49.7932 0.707311 49.7932 0.707311C49.7932 0.707311 49.5121 0.672574 46.1047 1.37678C45.3494 1.50491 44.6686 1.90891 44.1942 2.51047C44.0363 2.7031 43.9005 2.85784 43.7805 2.98415C43.6584 3.12296 43.5253 3.25179 43.3826 3.36941C42.9332 3.52406 42.4684 3.62993 41.9963 3.6852C39.8898 3.8256 37.7929 4.0839 35.7153 4.45889C32.4911 5.01784 29.3395 5.92415 26.4784 7.46205C23.9237 8.83573 21.4005 8.94942 18.7195 8.30836C16.6321 7.80941 14.5668 7.22205 12.4732 6.75468C10.2626 6.26205 7.31312 5.49152 5.03944 5.49152C2.76576 5.49152 0.413121 7.18731 0.792068 10.3484C0.96891 11.861 1.08259 11.8136 1.73944 13.6799C3.50155 17.722 5.99313 21.1957 8.72155 24.3536C8.99313 24.6694 9.40365 24.6947 10.1836 24.4073C10.2815 24.2968 9.55207 23.5926 9.35628 23.4062C9.14379 23.1924 8.94347 22.9668 8.75628 22.7304C8.37418 22.2126 8.01418 21.6947 7.63523 21.1957C7.49628 21.0094 6.82997 20.0778 6.68786 19.8599C6.29312 19.2062 5.34576 17.4947 5.20049 17.201C4.39839 15.622 2.27944 11.8041 2.61418 9.53994C2.97102 7.79994 4.5847 6.89994 6.40365 7.21573C10.0984 7.84731 13.73 8.77257 17.3742 9.64731C18.9816 10.0357 20.6047 10.2063 22.2342 10.4652C23.7563 10.7052 25.2311 10.3231 26.5984 9.69152C29.0322 8.55209 31.5502 7.60191 34.13 6.84942C36.0806 6.30945 38.0728 5.93237 40.0858 5.72205C40.3826 5.68731 41.5384 5.60836 41.8637 5.51994C42.7921 5.26731 43.3668 5.6052 43.7584 6.44836C43.8844 6.77089 44.0795 7.06192 44.33 7.30099C44.8384 7.74626 44.7595 8.02099 44.2826 8.47257C41.6995 10.9357 40.5911 14.1568 39.83 17.5104C39.5774 18.6315 39.7037 19.7905 39.6374 20.9841C38.4405 20.501 37.3732 19.961 36.2932 19.4494C33.9342 18.3315 31.8563 16.6231 29.0711 16.3989C26.2858 16.1747 23.5416 15.4957 20.8005 14.9147C19.6668 14.6652 16.8563 13.9326 16.5847 13.8726C13.8759 13.1012 11.2127 12.1776 8.60786 11.1062C8.20777 10.9292 7.76311 10.8788 7.33354 10.9618C6.90398 11.0447 6.51007 11.2571 6.2047 11.5704C5.67418 12.1168 5.43418 12.881 5.65207 13.9736C5.8226 14.8389 5.87628 15.6441 7.81523 19.3989C8.26459 20.2807 8.79308 21.1199 9.39418 21.9062C9.76365 22.3862 11.0111 24.1168 11.289 24.2747C12.1763 24.5904 12.2363 24.3126 12.2363 24.2747C12.1921 24.082 12.0279 23.9589 11.8984 23.8294C9.39887 21.0629 7.62386 17.7201 6.73207 14.0999C6.57734 13.4683 6.52681 12.8368 7.02891 12.3378C7.42997 11.9431 7.93523 11.9431 8.43734 12.0473C8.5881 12.1021 8.73479 12.1675 8.87628 12.2431C15.4542 15.0126 21.1384 16.3483 27.489 17.6589C28.7805 17.9241 30.1479 17.9052 31.2974 18.7483C32.4468 19.5915 33.8237 20.2262 35.0868 20.9873C36.5395 21.8747 38.2258 22.3452 39.5079 23.4915C40.0112 23.9538 40.6457 24.2484 41.3237 24.3347C43.6258 24.6505 45.8932 24.041 48.189 24.0568C48.5047 24.0568 49.0668 23.9904 49.0132 23.4252C48.9595 22.8599 48.4384 22.942 48.0911 22.8852C47.3395 22.7589 46.5721 22.7241 45.8142 22.6326C44.3868 22.4652 43.0637 21.7515 41.6016 21.7799C41.1468 21.7799 41.09 21.6094 41.0932 21.2273C41.0839 19.6759 41.3096 18.1321 41.7626 16.6483C42.3504 14.6209 43.4625 12.7844 44.9868 11.3241C45.17 11.1536 45.4511 10.7557 45.7353 10.7147C45.836 10.7675 45.9295 10.8333 46.0132 10.9104C46.2058 11.1031 46.9068 11.2262 47.1279 11.1978C47.3473 11.1871 47.5623 11.1321 47.7599 11.036C47.9574 10.9399 48.1335 10.8048 48.2774 10.6389C48.3627 10.5478 48.4238 10.4368 48.4552 10.316C48.4867 10.1952 48.4874 10.0685 48.4574 9.94731C48.3454 9.49858 48.307 9.03466 48.3437 8.57363C48.5317 7.82057 48.5066 7.03005 48.2711 6.29047C48.6374 6.18626 49.149 6.06626 49.85 5.93994C51.6311 5.62415 52.4963 5.41257 53.1184 4.16205C53.1184 4.16205 53.5511 3.29363 53.1184 3.11678L53.109 3.10731Z" fill="white"/>
<path d="M88.07 9.64399C86.7058 9.64399 85.0889 9.64399 84.65 9.57767C84.5825 10.0654 84.442 10.5402 84.2332 10.9861C84.5489 10.9671 84.9216 10.964 85.9226 10.964C85.2308 12.1479 84.4574 13.2823 83.6079 14.3587C83.03 15.1229 81.6216 15.0977 80.7658 15.0977H80.4121C80.9363 14.5387 81.1826 14.1155 81.1826 12.4892C81.1826 10.6608 80.3742 9.64714 78.5963 9.64714H77.071C75.151 11.6145 74.7121 12.3977 74.7121 13.645C74.6993 14.1652 74.8543 14.6756 75.1542 15.1008H74.2732C72.4037 15.1008 71.9395 14.7566 71.9395 13.3008C71.9395 11.1977 71.9395 10.4335 71.9616 10.0198C71.4805 10.2055 70.9754 10.3214 70.4616 10.364C70.5058 10.9545 70.55 12.5745 70.5532 14.1819C69.7984 14.7566 68.4784 15.0408 66.4226 15.0913H66.0058C63.811 15.0913 63.3942 14.5134 63.3721 13.1745C63.3729 11.8601 63.28 10.5473 63.0942 9.24609C62.6264 9.5437 62.1102 9.75742 61.5689 9.87767C61.8632 11.2496 62.0522 12.6421 62.1342 14.0429C61.3668 14.7313 60.1637 15.0755 59.0047 15.0755C58.3732 15.0755 58.0353 14.8924 58.0353 14.545V13.4808C57.7204 13.6579 57.3758 13.7756 57.0184 13.8282C57.0437 14.1282 57.0437 14.7755 57.0437 15.3061C57.0658 16.3008 57.4574 16.9482 58.7047 16.9482C59.9521 16.9482 61.4332 16.484 61.8026 15.8619C61.9605 15.5808 62.1595 15.2492 62.2984 14.9966C62.4595 16.2819 63.2205 16.9482 65.8226 16.9482L66.1384 16.9292C68.1374 16.8661 69.5742 16.5755 70.0574 15.9819C70.2468 15.7324 70.49 15.3882 70.7395 15.0692C70.8911 16.2755 71.7184 16.964 74.0553 16.964H80.2953C82.3732 16.964 83.3205 16.5692 83.8068 15.8777C84.0626 15.5303 84.3153 15.1387 84.6626 14.6145C84.6626 16.045 85.7711 16.9482 87.5047 16.9482C88.1742 16.9482 88.7521 16.9008 89.4689 16.8787C90.1384 15.6313 91.0163 15.2145 91.0163 12.6029C91.0163 10.825 89.8605 9.64399 88.0605 9.64399H88.07ZM79.3353 15.1671C76.9763 15.145 76.1458 14.4061 76.1458 12.9566C76.1567 12.269 76.3917 11.6037 76.8153 11.0619H78.0784C79.3416 11.0619 79.7174 11.7787 79.7174 12.9787C79.7174 14.2734 79.6258 14.7124 79.3258 15.1734L79.3353 15.1671ZM89.4879 15.0061C88.9366 15.0817 88.38 15.1123 87.8237 15.0977C86.4595 15.0977 85.8595 14.5671 85.8595 13.7587C85.8595 13.2219 85.9921 12.7482 86.9268 11.0555H87.5932C88.91 11.0555 89.5795 12.1419 89.5795 13.3671C89.6055 13.9151 89.5748 14.4644 89.4879 15.0061Z" fill="white"/>
<path d="M116.883 8.19199C116.835 7.69944 116.835 7.20348 116.883 6.71094H115.196C115.218 7.17515 115.218 7.86673 115.196 8.19199H116.883Z" fill="white"/>
<path d="M123.306 5.46289C122.114 6.42136 120.872 7.31629 119.586 8.14394V9.19552C121.228 8.13131 122.058 7.55342 123.514 6.47026C123.412 6.1464 123.342 5.81319 123.306 5.47552" fill="white"/>
<path d="M79.4489 8.19199C79.4047 7.6993 79.4047 7.20363 79.4489 6.71094H77.7405C77.7849 7.20362 77.7849 7.69931 77.7405 8.19199H79.4489Z" fill="white"/>
<path d="M133.417 10.2482C133.648 11.5871 133.878 14.2429 133.948 15.7018C133.578 16.6492 132.078 17.4797 131.058 17.9408C131.531 18.3366 131.955 18.7871 132.321 19.2829C132.789 19.0084 133.23 18.6912 133.638 18.3355C134.699 17.3408 135.164 15.9545 135.164 14.1513C135.164 12.7429 135.069 10.8039 135.047 9.78711C134.534 10.0214 133.989 10.1768 133.43 10.2482" fill="white"/>
<path d="M148.957 10.3607H142.856C144.843 9.41336 146.276 8.55757 147.849 7.63546C147.618 7.17172 147.469 6.67185 147.407 6.15757C146.507 6.87125 143.617 8.79125 141.053 10.3607C141.056 10.865 141.011 11.3684 140.917 11.8639H148.496C149.93 11.8639 151.038 12.7639 151.038 14.1975C151.038 14.4754 151.016 14.7975 150.991 15.0533C150.608 15.0932 150.223 15.109 149.838 15.1007H139.749C139.117 15.1007 138.801 14.8449 138.801 14.2449V5.69336C138.292 5.99011 137.724 6.17224 137.137 6.22704C137.298 7.42704 137.437 10.1523 137.529 15.0533C137.551 16.2786 138.129 16.9481 139.24 16.9481C147.95 16.9481 147.176 16.9007 149.744 16.9007C150.098 16.8928 150.452 16.9087 150.805 16.9481C151.474 15.7702 152.33 15.0754 152.33 13.4112C152.33 11.6807 150.874 10.3607 148.957 10.3607Z" fill="white"/>
<path d="M127.503 10.3614H121.383C123.464 9.32241 124.803 8.5582 126.372 7.6361C126.144 7.17164 125.995 6.672 125.933 6.1582C125.033 6.87189 122.144 8.79189 119.579 10.3614C119.583 10.8658 119.537 11.3693 119.441 11.8645H127.019C128.45 11.8645 129.562 12.7645 129.562 14.1982C129.562 14.4761 129.536 14.7982 129.514 15.054C129.13 15.0939 128.744 15.1097 128.358 15.1013H120.053C117.972 15.1013 117.116 14.7066 117.025 13.134C116.955 12.1171 116.908 10.9234 116.886 9.78346C116.374 10.0201 115.828 10.1766 115.269 10.2477C115.499 11.5866 115.73 14.2455 115.799 15.7013C115.43 16.6487 113.93 17.4792 112.913 17.9403C113.38 18.3369 113.799 18.7874 114.161 19.2824C114.628 19.0079 115.069 18.6908 115.477 18.335C116.169 17.6755 116.64 16.8186 116.826 15.8813C117.233 16.614 118.133 16.9487 119.668 16.9487C126.508 16.9487 125.734 16.9013 128.298 16.9013C128.654 16.8935 129.009 16.9093 129.363 16.9487C130.032 15.7708 130.888 15.0761 130.888 13.4119C130.888 11.6813 129.432 10.3614 127.515 10.3614" fill="white"/>
<path d="M102.255 10.9615H103.572C103.655 10.4256 103.836 9.90959 104.106 9.43945H102.65C102.018 9.43945 101.008 9.46156 100.152 9.53103C99.3689 10.57 97.9573 11.8173 97.9573 13.5763C97.9573 14.9847 98.8604 15.7457 100.591 15.7457H102.625C102.464 17.0626 101.194 17.5015 99.3689 17.5015H98.0741C96.1794 17.5015 95.4404 16.6015 95.4404 15.2626C95.4594 14.5407 95.5365 13.8215 95.671 13.1121C95.312 13.2761 94.9294 13.3827 94.5373 13.4279C94.5152 14.1921 94.3289 15.1142 94.3289 16.131C94.3289 18.0952 95.3931 19.2889 97.6573 19.2889H99.1352C102.464 19.2889 103.828 17.2805 103.828 15.2942C103.828 14.4605 103.55 14.0689 102.719 14.0689H101.194C99.9468 14.0689 99.3215 13.7689 99.3215 12.8436C99.3631 12.2009 99.565 11.5788 99.9089 11.0342C100.692 10.9606 101.479 10.9363 102.265 10.9615" fill="white"/>
<path d="M111.337 16.9481C111.733 16.7493 112.152 16.6018 112.585 16.5091C112.607 7.61336 112.632 6.08809 112.654 5.69336C112.116 5.98202 111.527 6.16328 110.92 6.22704C111.081 7.42704 111.29 10.7554 111.337 16.9481Z" fill="white"/>
<path d="M106.97 10.2482C107.201 11.5871 107.431 14.2429 107.501 15.7018C107.131 16.6492 105.631 17.4797 104.614 17.9408C105.087 18.3365 105.511 18.787 105.877 19.2829C106.345 19.0084 106.785 18.6912 107.194 18.3355C108.255 17.3408 108.719 15.9545 108.719 14.1513C108.719 12.7429 108.625 10.8039 108.603 9.78711C108.09 10.0214 107.545 10.1768 106.986 10.2482" fill="white"/>
<path d="M64.5563 18.3535C64.6007 18.8451 64.6007 19.3398 64.5563 19.8314H66.2647C66.2173 19.3399 66.2173 18.845 66.2647 18.3535H64.5563Z" fill="white"/>
<path d="M66.7036 18.3535C66.7481 18.8451 66.7481 19.3398 66.7036 19.8314H68.412C68.3647 19.3399 68.3647 18.845 68.412 18.3535H66.7036Z" fill="white"/>
</svg>
