<svg width="52" height="52" viewBox="0 0 52 52" fill="none" xmlns="http://www.w3.org/2000/svg">
<circle cx="26" cy="26" r="26" fill="#083647"/>
<path d="M18.5637 30.2176L16.25 32.5L20.8334 37.109L23.1471 34.8266L18.5637 30.2176Z" fill="#4DC1B6"/>
<path d="M35.3513 26.2589C34.5497 25.5867 34.0412 26.4358 34.0412 26.4358L30.4382 29.7883L25.0855 29.6645L28.3695 28.6207C28.3695 28.6207 29.0418 28.373 28.9815 27.6654C28.9125 26.9577 27.9989 27.0197 27.9989 27.0197L21.0343 28.3465L19.5 30.2572L23.5512 34.45H29.8865L35.4979 27.63C35.4979 27.6389 36.1529 26.94 35.3513 26.2589Z" fill="white"/>
<path d="M26.3248 20.8C27.5866 20.8 28.5998 19.7776 28.5998 18.525C28.5998 17.2632 27.5774 16.25 26.3248 16.25C25.0722 16.25 24.0498 17.2724 24.0498 18.525C24.0498 19.7776 25.0722 20.8 26.3248 20.8Z" fill="white"/>
<path d="M26.3201 20.8008C23.9823 20.8008 22.0996 22.5488 22.0996 24.7008H30.5496C30.5496 22.5488 28.658 20.8008 26.3201 20.8008Z" fill="white"/>
</svg>
