<svg width="52" height="52" viewBox="0 0 52 52" fill="none" xmlns="http://www.w3.org/2000/svg">
<circle cx="26" cy="26" r="26" fill="#083647"/>
<path fill-rule="evenodd" clip-rule="evenodd" d="M20.4754 24.0976C21.3983 24.0976 22.1465 23.3495 22.1465 22.4266C22.1465 21.5037 21.3983 20.7555 20.4754 20.7555C19.5525 20.7555 18.8043 21.5037 18.8043 22.4266C18.8043 23.3495 19.5525 24.0976 20.4754 24.0976ZM20.4754 26.0016C22.4498 26.0016 24.0504 24.401 24.0504 22.4266C24.0504 20.4521 22.4498 18.8516 20.4754 18.8516C18.501 18.8516 16.9004 20.4521 16.9004 22.4266C16.9004 24.401 18.501 26.0016 20.4754 26.0016Z" fill="#4DC1B6"/>
<path fill-rule="evenodd" clip-rule="evenodd" d="M31.5252 31.8965C32.4481 31.8965 33.1963 31.1483 33.1963 30.2254C33.1963 29.3025 32.4481 28.5543 31.5252 28.5543C30.6023 28.5543 29.8541 29.3025 29.8541 30.2254C29.8541 31.1483 30.6023 31.8965 31.5252 31.8965ZM31.5252 33.8004C33.4996 33.8004 35.1002 32.1998 35.1002 30.2254C35.1002 28.251 33.4996 26.6504 31.5252 26.6504C29.5508 26.6504 27.9502 28.251 27.9502 30.2254C27.9502 32.1998 29.5508 33.8004 31.5252 33.8004Z" fill="white"/>
<path d="M29.9274 17.5508H32.5004L22.8093 35.1008H20.1504L29.9274 17.5508Z" fill="white"/>
</svg>
