<svg width="16" height="16" viewBox="0 0 16 16" fill="none" xmlns="http://www.w3.org/2000/svg">
<path d="M3.51667 6.66159C4.71667 9.01992 6.65 10.9449 9.00833 12.1533L10.8417 10.3199C11.0667 10.0949 11.4 10.0199 11.6917 10.1199C12.625 10.4283 13.6333 10.5949 14.6667 10.5949C15.125 10.5949 15.5 10.9699 15.5 11.4283V14.3366C15.5 14.7949 15.125 15.1699 14.6667 15.1699C6.84167 15.1699 0.5 8.82826 0.5 1.00326C0.5 0.544922 0.875 0.169922 1.33333 0.169922H4.25C4.70833 0.169922 5.08333 0.544922 5.08333 1.00326C5.08333 2.04492 5.25 3.04492 5.55833 3.97826C5.65 4.26992 5.58333 4.59492 5.35 4.82826L3.51667 6.66159Z" fill="white"/>
</svg>
