<svg width="15" height="15" viewBox="0 0 15 15" fill="none" xmlns="http://www.w3.org/2000/svg">
<path d="M10.5833 9.33171H9.925L9.69167 9.10671C10.5366 8.12673 11.0009 6.87562 11 5.58171C11 4.51039 10.6823 3.46314 10.0871 2.57237C9.49194 1.6816 8.64597 0.987335 7.6562 0.577361C6.66644 0.167386 5.57733 0.060118 4.5266 0.269121C3.47587 0.478125 2.51071 0.994012 1.75317 1.75155C0.995639 2.50908 0.479751 3.47424 0.270748 4.52497C0.0617449 5.5757 0.169013 6.66481 0.578988 7.65458C0.988962 8.64434 1.68323 9.49031 2.574 10.0855C3.46476 10.6807 4.51202 10.9984 5.58333 10.9984C6.925 10.9984 8.15833 10.5067 9.10833 9.69004L9.33333 9.92337V10.5817L13.5 14.74L14.7417 13.4984L10.5833 9.33171ZM5.58333 9.33171C3.50833 9.33171 1.83334 7.65671 1.83334 5.58171C1.83334 3.50671 3.50833 1.83171 5.58333 1.83171C7.65833 1.83171 9.33333 3.50671 9.33333 5.58171C9.33333 7.65671 7.65833 9.33171 5.58333 9.33171Z" fill="white"/>
</svg>
